<svg xmlns="http://www.w3.org/2000/svg" xmlns:osb="http://www.openswatchbook.org/uri/2009/osb" xmlns:svg="http://www.w3.org/2000/svg" xmlns:xlink="http://www.w3.org/1999/xlink" id="svg4218" width="960" height="200" version="1.1"><defs id="defs4220"><linearGradient id="linearGradient6086"><stop id="stop6088" offset="0" stop-color="#005000" stop-opacity="1"/><stop id="stop6090" offset="1" stop-color="#008c00" stop-opacity="1"/></linearGradient><linearGradient id="linearGradient5259" osb:paint="solid"><stop id="stop5261" offset="0" stop-color="#78b400" stop-opacity="1"/></linearGradient><linearGradient id="linearGradient4736"><stop id="stop4738" offset="0" stop-color="#005000" stop-opacity="1"/><stop id="stop4740" offset="1" stop-color="#006e00" stop-opacity="1"/></linearGradient><linearGradient id="linearGradient3783"><stop id="stop3785" offset="0" stop-color="#000" stop-opacity="1"/><stop id="stop3787" offset="1" stop-color="#502828" stop-opacity="1"/></linearGradient><linearGradient id="linearGradient3799"><stop id="stop3801" offset="0" stop-color="#000" stop-opacity="1"/><stop id="stop3803" offset="1" stop-color="#000" stop-opacity="0"/></linearGradient><linearGradient id="linearGradient3831"><stop id="stop3833" offset="0" stop-color="#281414" stop-opacity="1"/><stop id="stop3835" offset="1" stop-color="#000" stop-opacity="1"/></linearGradient><linearGradient id="linearGradient3839"><stop id="stop3841" offset="0" stop-color="#281414" stop-opacity="1"/><stop id="stop3843" offset="1" stop-color="#281414" stop-opacity="0"/></linearGradient><filter id="filter6655" width="1.066" height="1.625" x="-.033" y="-.312"><feGaussianBlur id="feGaussianBlur6657" stdDeviation="5.017"/></filter><linearGradient id="linearGradient6999" x1="307.518" x2="8.438" y1="954.904" y2="954.904" gradientTransform="matrix(1.0212766,0,0,1.0526315,-10.212766,-55.387394)" gradientUnits="userSpaceOnUse" xlink:href="#linearGradient6086"/><linearGradient id="linearGradient7445" x1="222.703" x2="72.83" y1="800.12" y2="801.13" gradientUnits="userSpaceOnUse" xlink:href="#linearGradient3783"/><linearGradient id="linearGradient7447" x1="268.969" x2="294.675" y1="845.339" y2="977.669" gradientUnits="userSpaceOnUse" xlink:href="#linearGradient3783"/><radialGradient id="radialGradient7449" cx="146.549" cy="903.513" r="66.261" fx="146.549" fy="903.513" gradientTransform="matrix(2.6788686,0.15158589,-0.13097137,2.3145631,-127.70278,-1211.5568)" gradientUnits="userSpaceOnUse" xlink:href="#linearGradient3831"/><linearGradient id="linearGradient7451" x1="235.876" x2="132.83" y1="752.852" y2="675.07" gradientUnits="userSpaceOnUse" xlink:href="#linearGradient3783"/><linearGradient id="linearGradient7453" x1="313.228" x2="465.39" y1="790.919" y2="790.919" gradientUnits="userSpaceOnUse" xlink:href="#linearGradient3783"/><linearGradient id="linearGradient7455" x1="307.958" x2="408.116" y1="806.921" y2="909.956" gradientUnits="userSpaceOnUse" xlink:href="#linearGradient3783"/><linearGradient id="linearGradient7457" x1="262.099" x2="237.297" y1="725.497" y2="596.197" gradientUnits="userSpaceOnUse" xlink:href="#linearGradient3783"/><radialGradient id="radialGradient7459" cx="277.096" cy="778.113" r="61.348" fx="277.096" fy="778.113" gradientTransform="matrix(-0.84486159,0.93523466,-1.1924279,-1.0772019,1439.0469,1357.148)" gradientUnits="userSpaceOnUse" spreadMethod="pad" xlink:href="#linearGradient3831"/><linearGradient id="linearGradient7477" x1="222.703" x2="72.83" y1="800.12" y2="801.13" gradientUnits="userSpaceOnUse" xlink:href="#linearGradient3783"/><linearGradient id="linearGradient7479" x1="268.969" x2="294.675" y1="845.339" y2="977.669" gradientUnits="userSpaceOnUse" xlink:href="#linearGradient3783"/><radialGradient id="radialGradient7481" cx="146.549" cy="903.513" r="66.261" fx="146.549" fy="903.513" gradientTransform="matrix(2.6788686,0.15158589,-0.13097137,2.3145631,-127.70278,-1211.5568)" gradientUnits="userSpaceOnUse" xlink:href="#linearGradient3831"/><linearGradient id="linearGradient7483" x1="235.876" x2="132.83" y1="752.852" y2="675.07" gradientUnits="userSpaceOnUse" xlink:href="#linearGradient3783"/><linearGradient id="linearGradient7485" x1="313.228" x2="465.39" y1="790.919" y2="790.919" gradientUnits="userSpaceOnUse" xlink:href="#linearGradient3783"/><linearGradient id="linearGradient7487" x1="307.958" x2="408.116" y1="806.921" y2="909.956" gradientUnits="userSpaceOnUse" xlink:href="#linearGradient3783"/><linearGradient id="linearGradient7489" x1="262.099" x2="237.297" y1="725.497" y2="596.197" gradientUnits="userSpaceOnUse" xlink:href="#linearGradient3783"/><radialGradient id="radialGradient7491" cx="277.096" cy="778.113" r="61.348" fx="277.096" fy="778.113" gradientTransform="matrix(-0.84486159,0.93523466,-1.1924279,-1.0772019,1439.0469,1357.148)" gradientUnits="userSpaceOnUse" spreadMethod="pad" xlink:href="#linearGradient3831"/><linearGradient id="linearGradient7493" x1="222.703" x2="72.83" y1="800.12" y2="801.13" gradientUnits="userSpaceOnUse" xlink:href="#linearGradient3783"/><linearGradient id="linearGradient7495" x1="268.969" x2="294.675" y1="845.339" y2="977.669" gradientUnits="userSpaceOnUse" xlink:href="#linearGradient3783"/><radialGradient id="radialGradient7497" cx="146.549" cy="903.513" r="66.261" fx="146.549" fy="903.513" gradientTransform="matrix(2.6788686,0.15158589,-0.13097137,2.3145631,-127.70278,-1211.5568)" gradientUnits="userSpaceOnUse" xlink:href="#linearGradient3831"/><linearGradient id="linearGradient7499" x1="235.876" x2="132.83" y1="752.852" y2="675.07" gradientUnits="userSpaceOnUse" xlink:href="#linearGradient3783"/><linearGradient id="linearGradient7501" x1="313.228" x2="465.39" y1="790.919" y2="790.919" gradientUnits="userSpaceOnUse" xlink:href="#linearGradient3783"/><linearGradient id="linearGradient7503" x1="307.958" x2="408.116" y1="806.921" y2="909.956" gradientUnits="userSpaceOnUse" xlink:href="#linearGradient3783"/><linearGradient id="linearGradient7505" x1="262.099" x2="237.297" y1="725.497" y2="596.197" gradientUnits="userSpaceOnUse" xlink:href="#linearGradient3783"/><radialGradient id="radialGradient7507" cx="277.096" cy="778.113" r="61.348" fx="277.096" fy="778.113" gradientTransform="matrix(-0.84486159,0.93523466,-1.1924279,-1.0772019,1439.0469,1357.148)" gradientUnits="userSpaceOnUse" spreadMethod="pad" xlink:href="#linearGradient3831"/><linearGradient id="linearGradient7509" x1="222.703" x2="72.83" y1="800.12" y2="801.13" gradientUnits="userSpaceOnUse" xlink:href="#linearGradient3783"/><linearGradient id="linearGradient7511" x1="268.969" x2="294.675" y1="845.339" y2="977.669" gradientUnits="userSpaceOnUse" xlink:href="#linearGradient3783"/><radialGradient id="radialGradient7513" cx="146.549" cy="903.513" r="66.261" fx="146.549" fy="903.513" gradientTransform="matrix(2.6788686,0.15158589,-0.13097137,2.3145631,-127.70278,-1211.5568)" gradientUnits="userSpaceOnUse" xlink:href="#linearGradient3831"/><linearGradient id="linearGradient7515" x1="235.876" x2="132.83" y1="752.852" y2="675.07" gradientUnits="userSpaceOnUse" xlink:href="#linearGradient3783"/><linearGradient id="linearGradient7517" x1="313.228" x2="465.39" y1="790.919" y2="790.919" gradientUnits="userSpaceOnUse" xlink:href="#linearGradient3783"/><linearGradient id="linearGradient7519" x1="307.958" x2="408.116" y1="806.921" y2="909.956" gradientUnits="userSpaceOnUse" xlink:href="#linearGradient3783"/><linearGradient id="linearGradient7521" x1="262.099" x2="237.297" y1="725.497" y2="596.197" gradientUnits="userSpaceOnUse" xlink:href="#linearGradient3783"/><radialGradient id="radialGradient7523" cx="277.096" cy="778.113" r="61.348" fx="277.096" fy="778.113" gradientTransform="matrix(-0.84486159,0.93523466,-1.1924279,-1.0772019,1439.0469,1357.148)" gradientUnits="userSpaceOnUse" spreadMethod="pad" xlink:href="#linearGradient3831"/><linearGradient id="linearGradient7525" x1="222.703" x2="72.83" y1="800.12" y2="801.13" gradientUnits="userSpaceOnUse" xlink:href="#linearGradient3783"/><linearGradient id="linearGradient7527" x1="268.969" x2="294.675" y1="845.339" y2="977.669" gradientUnits="userSpaceOnUse" xlink:href="#linearGradient3783"/><radialGradient id="radialGradient7529" cx="146.549" cy="903.513" r="66.261" fx="146.549" fy="903.513" gradientTransform="matrix(2.6788686,0.15158589,-0.13097137,2.3145631,-127.70278,-1211.5568)" gradientUnits="userSpaceOnUse" xlink:href="#linearGradient3831"/><linearGradient id="linearGradient7531" x1="235.876" x2="132.83" y1="752.852" y2="675.07" gradientUnits="userSpaceOnUse" xlink:href="#linearGradient3783"/><linearGradient id="linearGradient7533" x1="313.228" x2="465.39" y1="790.919" y2="790.919" gradientUnits="userSpaceOnUse" xlink:href="#linearGradient3783"/><linearGradient id="linearGradient7535" x1="307.958" x2="408.116" y1="806.921" y2="909.956" gradientUnits="userSpaceOnUse" xlink:href="#linearGradient3783"/><linearGradient id="linearGradient7537" x1="262.099" x2="237.297" y1="725.497" y2="596.197" gradientUnits="userSpaceOnUse" xlink:href="#linearGradient3783"/><radialGradient id="radialGradient7539" cx="277.096" cy="778.113" r="61.348" fx="277.096" fy="778.113" gradientTransform="matrix(-0.84486159,0.93523466,-1.1924279,-1.0772019,1439.0469,1357.148)" gradientUnits="userSpaceOnUse" spreadMethod="pad" xlink:href="#linearGradient3831"/><linearGradient id="linearGradient7541" x1="222.703" x2="72.83" y1="800.12" y2="801.13" gradientUnits="userSpaceOnUse" xlink:href="#linearGradient3783"/><linearGradient id="linearGradient7543" x1="268.969" x2="294.675" y1="845.339" y2="977.669" gradientUnits="userSpaceOnUse" xlink:href="#linearGradient3783"/><radialGradient id="radialGradient7545" cx="146.549" cy="903.513" r="66.261" fx="146.549" fy="903.513" gradientTransform="matrix(2.6788686,0.15158589,-0.13097137,2.3145631,-127.70278,-1211.5568)" gradientUnits="userSpaceOnUse" xlink:href="#linearGradient3831"/><linearGradient id="linearGradient7547" x1="235.876" x2="132.83" y1="752.852" y2="675.07" gradientUnits="userSpaceOnUse" xlink:href="#linearGradient3783"/><linearGradient id="linearGradient7549" x1="313.228" x2="465.39" y1="790.919" y2="790.919" gradientUnits="userSpaceOnUse" xlink:href="#linearGradient3783"/><linearGradient id="linearGradient7551" x1="307.958" x2="408.116" y1="806.921" y2="909.956" gradientUnits="userSpaceOnUse" xlink:href="#linearGradient3783"/><linearGradient id="linearGradient7553" x1="262.099" x2="237.297" y1="725.497" y2="596.197" gradientUnits="userSpaceOnUse" xlink:href="#linearGradient3783"/><radialGradient id="radialGradient7555" cx="277.096" cy="778.113" r="61.348" fx="277.096" fy="778.113" gradientTransform="matrix(-0.84486159,0.93523466,-1.1924279,-1.0772019,1439.0469,1357.148)" gradientUnits="userSpaceOnUse" spreadMethod="pad" xlink:href="#linearGradient3831"/></defs><metadata id="metadata4223"/><g id="layer1" transform="translate(0,-852.36218)"><rect id="rect4226" width="960" height="200" x="0" y="852.362" fill="url(#linearGradient6999)" fill-opacity="1" stroke="none" ry="0"/><text id="text4744" x="260.493" y="967.122" fill="#78b400" fill-opacity="1" stroke="none" filter="url(#filter6655)" font-family="Sans" font-size="40" font-style="normal" font-weight="normal" letter-spacing="0" transform="matrix(1.5550405,0,0,1.5550405,-243.93488,-531.58148)" word-spacing="0" xml:space="preserve" style="line-height:125%"><tspan id="tspan4746" x="260.493" y="967.122" fill="#78b400" fill-opacity="1" font-family="Ubuntu" font-size="39.405" font-stretch="normal" font-style="normal" font-variant="normal" font-weight="normal" style="-inkscape-font-specification:Ubuntu">Google AI Challenge</tspan></text><text id="text6639" x="161.622" y="972.333" fill="#000" fill-opacity="1" stroke="none" font-family="Sans" font-size="62.202" font-style="normal" font-weight="normal" letter-spacing="0" opacity=".96" word-spacing="0" xml:space="preserve" style="line-height:125%"><tspan style="-inkscape-font-specification:Ubuntu" id="tspan6641" x="161.622" y="972.333" font-family="Ubuntu" font-size="61.277" font-stretch="normal" font-style="normal" font-variant="normal" font-weight="normal">Google Ai Challenge</tspan></text><path id="rect4752" fill="#73b000" fill-opacity="1" stroke="none" d="m 720,852.36217 240,0 0,200.00003 -240,0 0,-50 42.47409,-50.00006 L 720,902.36215 z"/><g id="layer1-6" transform="matrix(0.14298478,0,0,0.14298478,885.45228,770.13174)"><path id="path3769" fill="url(#linearGradient7541)" fill-opacity="1" stroke="#000" stroke-linecap="butt" stroke-linejoin="miter" stroke-opacity="1" stroke-width=".819" d="m 217.88241,792.3617 c 0,0 -47.86319,-25.78961 -73.60427,-23.98341 -28.77874,2.01936 -77.739331,38.04265 -77.739331,38.04265 0,0 51.428771,-22.38352 78.566351,-21.50236 25.3559,0.8233 71.95024,24.81042 71.95024,24.81042 z"/><path id="path3773" fill="url(#linearGradient7543)" fill-opacity="1" stroke="#000" stroke-linecap="butt" stroke-linejoin="miter" stroke-opacity="1" stroke-width=".819" d="m 261.48816,836.61222 c 0,0 38.74024,38.14685 44.594,63.27849 6.54455,28.09739 -13.46431,85.4948 -13.46431,85.4948 0,0 6.24705,-55.73971 -2.58614,-81.41459 -8.25325,-23.98923 -44.89728,-61.45427 -44.89728,-61.45427 z"/><path id="path2985" fill="url(#radialGradient7545)" fill-opacity="1" stroke="#000" stroke-dasharray="none" stroke-linecap="butt" stroke-linejoin="miter" stroke-miterlimit="4" stroke-opacity="1" stroke-width="2" d="m 221.5679,802.14683 c 0,0 -31.49736,-1.31431 -45.84602,4.12099 -14.35585,5.43802 -28.18976,14.79285 -37.08891,27.30156 -7.39878,10.39976 -10.06136,23.87416 -11.33273,36.57379 -1.35814,13.56649 -4.14133,29.84913 4.12099,40.69483 8.92747,11.7187 26.52572,14.7841 41.20991,15.9688 14.87053,1.1997 30.53657,-2.4139 43.78552,-9.2722 13.91995,-7.2057 27.42451,-17.95787 34.5133,-31.93771 6.8005,-13.41131 5.15124,-44.81578 5.15124,-44.81578 z"/><path id="path3775" fill="url(#linearGradient7547)" fill-opacity="1" stroke="#000" stroke-linecap="butt" stroke-linejoin="miter" stroke-opacity="1" stroke-width="1" d="m 233.34523,774.57023 c -8.11272,-30.47687 -58.99338,-66.29974 -109.09647,-102.02541 0,0 56.92465,18.95185 79.80205,37.37565 16.83714,13.55941 39.39595,51.51778 39.39595,51.51778 z"/><path id="path3779" fill="url(#linearGradient7549)" fill-opacity="1" stroke="#000" stroke-linecap="butt" stroke-linejoin="miter" stroke-opacity="1" stroke-width=".819" d="m 313.63751,787.56524 c 0,0 47.86319,25.78961 73.60427,23.98341 28.77874,-2.01936 77.73933,-38.04265 77.73933,-38.04265 0,0 -51.42877,22.38352 -78.56635,21.50236 -25.3559,-0.8233 -71.95024,-24.81042 -71.95024,-24.81042 z"/><path id="path3777" fill="url(#linearGradient7551)" fill-opacity="1" stroke="#000" stroke-linecap="butt" stroke-linejoin="miter" stroke-opacity="1" stroke-width="1" d="m 298.35645,814.81164 c 31.27197,4.08894 73.395,49.89035 115.32074,94.93339 0,0 -26.17904,-53.98375 -47.41598,-74.27671 -15.62981,-14.93507 -56.19477,-32.37701 -56.19477,-32.37701 z"/><path id="path3781" fill="url(#linearGradient7553)" fill-opacity="1" stroke="#000" stroke-linecap="butt" stroke-linejoin="miter" stroke-opacity="1" stroke-width=".819" d="m 270.03177,743.31472 c 0,0 -38.74024,-38.14685 -44.594,-63.27849 -6.54455,-28.09739 13.46431,-85.4948 13.46431,-85.4948 0,0 -6.24705,55.73971 2.58614,81.41459 8.25325,23.98923 44.89728,61.45427 44.89728,61.45427 z"/><path id="path2987" fill="url(#radialGradient7555)" fill-opacity="1" stroke="#000" stroke-dasharray="none" stroke-linecap="butt" stroke-linejoin="miter" stroke-miterlimit="4" stroke-opacity="1" stroke-width="2" d="m 221.5679,765.05791 c -3.03514,5.77857 -3.9083,21.33023 -4.63611,27.81669 -0.9659,8.6083 1.97417,17.66913 6.18148,25.24107 5.24884,9.44639 12.70476,18.989 22.66545,23.18057 11.23687,4.72859 25.19348,4.37211 36.57379,0 15.32137,-5.8862 27.0847,-19.57581 36.5738,-32.96792 8.49913,-11.99498 14.51622,-26.20512 16.99908,-40.69478 2.06227,-12.03519 2.58482,-25.28133 -2.0605,-36.5738 -2.26758,-5.51234 -6.44739,-10.87076 -11.84784,-13.39322 -11.36117,-5.3066 -26.69518,-7.12522 -39.14941,-5.66636 -10.59009,1.24049 -20.96424,6.30805 -29.36206,12.8781 -15.13214,11.83863 -23.00365,23.17031 -31.93768,40.17965 z"/><path id="path3765" fill="#000" fill-opacity="1" stroke="none" d="m 337.39095,648.28086 -9.09137,-25.25382 45.45686,-28.28426 -39.39595,29.29442 11.11168,21.2132 z"/><path id="path3767" fill="#000" fill-opacity="1" stroke="none" d="m 377.12025,674.13194 26.3491,-5.11211 -0.29378,-49.4825 -3.67561,44.79219 -23.91144,1.30868 z"/><path id="path3759" fill="#190a0a" fill-opacity="1" stroke="#000" stroke-dasharray="none" stroke-linecap="butt" stroke-linejoin="miter" stroke-miterlimit="4" stroke-opacity="1" stroke-width="2" d="m 366.68027,647.29611 c -27.16792,-17.37278 -71.80761,16.9758 -84.85281,46.46702 -4.06362,9.18662 11.59532,18.91941 17.1726,27.27411 8.56308,12.8274 8.93139,16.338 24.24365,18.18275 12.29207,1.48089 30.1403,7.01632 37.37565,-3.03045 17.35646,-24.10061 31.08246,-72.89316 6.06091,-88.89343 z"/><path id="path3761" fill="#501414" fill-opacity="1" stroke="#000" stroke-dasharray="none" stroke-miterlimit="4" stroke-opacity="1" stroke-width="1.286" d="m 137.38075,87.857765 c 0,5.021027 -3.61809,9.091373 -8.08122,9.091373 -4.46313,0 -8.08122,-4.070346 -8.08122,-9.091373 0,-5.021026 3.61809,-9.091372 8.08122,-9.091372 4.46313,0 8.08122,4.070346 8.08122,9.091372 z" transform="matrix(0.77752935,0,0,0.77752935,240.89229,587.85077)"/><path id="path3763" fill="#501414" fill-opacity="1" stroke="#000" stroke-dasharray="none" stroke-miterlimit="4" stroke-opacity="1" stroke-width="1.286" d="m 137.38075,87.857765 c 0,5.021027 -3.61809,9.091373 -8.08122,9.091373 -4.46313,0 -8.08122,-4.070346 -8.08122,-9.091373 0,-5.021026 3.61809,-9.091372 8.08122,-9.091372 4.46313,0 8.08122,4.070346 8.08122,9.091372 z" transform="matrix(0.77752935,0,0,0.77752935,266.1461,604.01321)"/></g><text id="text4755" x="778.275" y="972.333" fill="#000" fill-opacity="1" stroke="none" font-family="Sans" font-size="40.851" font-style="normal" font-weight="normal" letter-spacing="0" word-spacing="0" xml:space="preserve" style="line-height:125%"><tspan style="-inkscape-font-specification:Ubuntu" id="tspan4757" x="778.275" y="972.333" font-family="Ubuntu" font-size="61.277" font-stretch="normal" font-style="normal" font-variant="normal" font-weight="normal">Ants</tspan></text><g id="g5294" transform="matrix(0.06719183,0.01800399,-0.01800399,0.06719183,887.76236,855.37696)"><path id="path5296" fill="url(#linearGradient7525)" fill-opacity="1" stroke="#000" stroke-linecap="butt" stroke-linejoin="miter" stroke-opacity="1" stroke-width=".819" d="m 217.88241,792.3617 c 0,0 -47.86319,-25.78961 -73.60427,-23.98341 -28.77874,2.01936 -77.739331,38.04265 -77.739331,38.04265 0,0 51.428771,-22.38352 78.566351,-21.50236 25.3559,0.8233 71.95024,24.81042 71.95024,24.81042 z"/><path id="path5298" fill="url(#linearGradient7527)" fill-opacity="1" stroke="#000" stroke-linecap="butt" stroke-linejoin="miter" stroke-opacity="1" stroke-width=".819" d="m 261.48816,836.61222 c 0,0 38.74024,38.14685 44.594,63.27849 6.54455,28.09739 -13.46431,85.4948 -13.46431,85.4948 0,0 6.24705,-55.73971 -2.58614,-81.41459 -8.25325,-23.98923 -44.89728,-61.45427 -44.89728,-61.45427 z"/><path id="path5300" fill="url(#radialGradient7529)" fill-opacity="1" stroke="#000" stroke-dasharray="none" stroke-linecap="butt" stroke-linejoin="miter" stroke-miterlimit="4" stroke-opacity="1" stroke-width="2" d="m 221.5679,802.14683 c 0,0 -31.49736,-1.31431 -45.84602,4.12099 -14.35585,5.43802 -28.18976,14.79285 -37.08891,27.30156 -7.39878,10.39976 -10.06136,23.87416 -11.33273,36.57379 -1.35814,13.56649 -4.14133,29.84913 4.12099,40.69483 8.92747,11.7187 26.52572,14.7841 41.20991,15.9688 14.87053,1.1997 30.53657,-2.4139 43.78552,-9.2722 13.91995,-7.2057 27.42451,-17.95787 34.5133,-31.93771 6.8005,-13.41131 5.15124,-44.81578 5.15124,-44.81578 z"/><path id="path5302" fill="url(#linearGradient7531)" fill-opacity="1" stroke="#000" stroke-linecap="butt" stroke-linejoin="miter" stroke-opacity="1" stroke-width="1" d="m 233.34523,774.57023 c -8.11272,-30.47687 -58.99338,-66.29974 -109.09647,-102.02541 0,0 56.92465,18.95185 79.80205,37.37565 16.83714,13.55941 39.39595,51.51778 39.39595,51.51778 z"/><path id="path5304" fill="url(#linearGradient7533)" fill-opacity="1" stroke="#000" stroke-linecap="butt" stroke-linejoin="miter" stroke-opacity="1" stroke-width=".819" d="m 313.63751,787.56524 c 0,0 47.86319,25.78961 73.60427,23.98341 28.77874,-2.01936 77.73933,-38.04265 77.73933,-38.04265 0,0 -51.42877,22.38352 -78.56635,21.50236 -25.3559,-0.8233 -71.95024,-24.81042 -71.95024,-24.81042 z"/><path id="path5306" fill="url(#linearGradient7535)" fill-opacity="1" stroke="#000" stroke-linecap="butt" stroke-linejoin="miter" stroke-opacity="1" stroke-width="1" d="m 298.35645,814.81164 c 31.27197,4.08894 73.395,49.89035 115.32074,94.93339 0,0 -26.17904,-53.98375 -47.41598,-74.27671 -15.62981,-14.93507 -56.19477,-32.37701 -56.19477,-32.37701 z"/><path id="path5308" fill="url(#linearGradient7537)" fill-opacity="1" stroke="#000" stroke-linecap="butt" stroke-linejoin="miter" stroke-opacity="1" stroke-width=".819" d="m 270.03177,743.31472 c 0,0 -38.74024,-38.14685 -44.594,-63.27849 -6.54455,-28.09739 13.46431,-85.4948 13.46431,-85.4948 0,0 -6.24705,55.73971 2.58614,81.41459 8.25325,23.98923 44.89728,61.45427 44.89728,61.45427 z"/><path id="path5310" fill="url(#radialGradient7539)" fill-opacity="1" stroke="#000" stroke-dasharray="none" stroke-linecap="butt" stroke-linejoin="miter" stroke-miterlimit="4" stroke-opacity="1" stroke-width="2" d="m 221.5679,765.05791 c -3.03514,5.77857 -3.9083,21.33023 -4.63611,27.81669 -0.9659,8.6083 1.97417,17.66913 6.18148,25.24107 5.24884,9.44639 12.70476,18.989 22.66545,23.18057 11.23687,4.72859 25.19348,4.37211 36.57379,0 15.32137,-5.8862 27.0847,-19.57581 36.5738,-32.96792 8.49913,-11.99498 14.51622,-26.20512 16.99908,-40.69478 2.06227,-12.03519 2.58482,-25.28133 -2.0605,-36.5738 -2.26758,-5.51234 -6.44739,-10.87076 -11.84784,-13.39322 -11.36117,-5.3066 -26.69518,-7.12522 -39.14941,-5.66636 -10.59009,1.24049 -20.96424,6.30805 -29.36206,12.8781 -15.13214,11.83863 -23.00365,23.17031 -31.93768,40.17965 z"/><path id="path5312" fill="#000" fill-opacity="1" stroke="none" d="m 337.39095,648.28086 -9.09137,-25.25382 45.45686,-28.28426 -39.39595,29.29442 11.11168,21.2132 z"/><path id="path5314" fill="#000" fill-opacity="1" stroke="none" d="m 377.12025,674.13194 26.3491,-5.11211 -0.29378,-49.4825 -3.67561,44.79219 -23.91144,1.30868 z"/><path id="path5316" fill="#190a0a" fill-opacity="1" stroke="#000" stroke-dasharray="none" stroke-linecap="butt" stroke-linejoin="miter" stroke-miterlimit="4" stroke-opacity="1" stroke-width="2" d="m 366.68027,647.29611 c -27.16792,-17.37278 -71.80761,16.9758 -84.85281,46.46702 -4.06362,9.18662 11.59532,18.91941 17.1726,27.27411 8.56308,12.8274 8.93139,16.338 24.24365,18.18275 12.29207,1.48089 30.1403,7.01632 37.37565,-3.03045 17.35646,-24.10061 31.08246,-72.89316 6.06091,-88.89343 z"/><path id="path5318" fill="#501414" fill-opacity="1" stroke="#000" stroke-dasharray="none" stroke-miterlimit="4" stroke-opacity="1" stroke-width="1.286" d="m 137.38075,87.857765 c 0,5.021027 -3.61809,9.091373 -8.08122,9.091373 -4.46313,0 -8.08122,-4.070346 -8.08122,-9.091373 0,-5.021026 3.61809,-9.091372 8.08122,-9.091372 4.46313,0 8.08122,4.070346 8.08122,9.091372 z" transform="matrix(0.77752935,0,0,0.77752935,240.89229,587.85077)"/><path id="path5320" fill="#501414" fill-opacity="1" stroke="#000" stroke-dasharray="none" stroke-miterlimit="4" stroke-opacity="1" stroke-width="1.286" d="m 137.38075,87.857765 c 0,5.021027 -3.61809,9.091373 -8.08122,9.091373 -4.46313,0 -8.08122,-4.070346 -8.08122,-9.091373 0,-5.021026 3.61809,-9.091372 8.08122,-9.091372 4.46313,0 8.08122,4.070346 8.08122,9.091372 z" transform="matrix(0.77752935,0,0,0.77752935,266.1461,604.01321)"/></g><g id="g5338" transform="matrix(0.04042824,0.0566078,-0.0566078,0.04042824,891.17252,868.69455)"><path id="path5340" fill="url(#linearGradient7509)" fill-opacity="1" stroke="#000" stroke-linecap="butt" stroke-linejoin="miter" stroke-opacity="1" stroke-width=".819" d="m 217.88241,792.3617 c 0,0 -47.86319,-25.78961 -73.60427,-23.98341 -28.77874,2.01936 -77.739331,38.04265 -77.739331,38.04265 0,0 51.428771,-22.38352 78.566351,-21.50236 25.3559,0.8233 71.95024,24.81042 71.95024,24.81042 z"/><path id="path5342" fill="url(#linearGradient7511)" fill-opacity="1" stroke="#000" stroke-linecap="butt" stroke-linejoin="miter" stroke-opacity="1" stroke-width=".819" d="m 261.48816,836.61222 c 0,0 38.74024,38.14685 44.594,63.27849 6.54455,28.09739 -13.46431,85.4948 -13.46431,85.4948 0,0 6.24705,-55.73971 -2.58614,-81.41459 -8.25325,-23.98923 -44.89728,-61.45427 -44.89728,-61.45427 z"/><path id="path5344" fill="url(#radialGradient7513)" fill-opacity="1" stroke="#000" stroke-dasharray="none" stroke-linecap="butt" stroke-linejoin="miter" stroke-miterlimit="4" stroke-opacity="1" stroke-width="2" d="m 221.5679,802.14683 c 0,0 -31.49736,-1.31431 -45.84602,4.12099 -14.35585,5.43802 -28.18976,14.79285 -37.08891,27.30156 -7.39878,10.39976 -10.06136,23.87416 -11.33273,36.57379 -1.35814,13.56649 -4.14133,29.84913 4.12099,40.69483 8.92747,11.7187 26.52572,14.7841 41.20991,15.9688 14.87053,1.1997 30.53657,-2.4139 43.78552,-9.2722 13.91995,-7.2057 27.42451,-17.95787 34.5133,-31.93771 6.8005,-13.41131 5.15124,-44.81578 5.15124,-44.81578 z"/><path id="path5346" fill="url(#linearGradient7515)" fill-opacity="1" stroke="#000" stroke-linecap="butt" stroke-linejoin="miter" stroke-opacity="1" stroke-width="1" d="m 233.34523,774.57023 c -8.11272,-30.47687 -58.99338,-66.29974 -109.09647,-102.02541 0,0 56.92465,18.95185 79.80205,37.37565 16.83714,13.55941 39.39595,51.51778 39.39595,51.51778 z"/><path id="path5348" fill="url(#linearGradient7517)" fill-opacity="1" stroke="#000" stroke-linecap="butt" stroke-linejoin="miter" stroke-opacity="1" stroke-width=".819" d="m 313.63751,787.56524 c 0,0 47.86319,25.78961 73.60427,23.98341 28.77874,-2.01936 77.73933,-38.04265 77.73933,-38.04265 0,0 -51.42877,22.38352 -78.56635,21.50236 -25.3559,-0.8233 -71.95024,-24.81042 -71.95024,-24.81042 z"/><path id="path5350" fill="url(#linearGradient7519)" fill-opacity="1" stroke="#000" stroke-linecap="butt" stroke-linejoin="miter" stroke-opacity="1" stroke-width="1" d="m 298.35645,814.81164 c 31.27197,4.08894 73.395,49.89035 115.32074,94.93339 0,0 -26.17904,-53.98375 -47.41598,-74.27671 -15.62981,-14.93507 -56.19477,-32.37701 -56.19477,-32.37701 z"/><path id="path5352" fill="url(#linearGradient7521)" fill-opacity="1" stroke="#000" stroke-linecap="butt" stroke-linejoin="miter" stroke-opacity="1" stroke-width=".819" d="m 270.03177,743.31472 c 0,0 -38.74024,-38.14685 -44.594,-63.27849 -6.54455,-28.09739 13.46431,-85.4948 13.46431,-85.4948 0,0 -6.24705,55.73971 2.58614,81.41459 8.25325,23.98923 44.89728,61.45427 44.89728,61.45427 z"/><path id="path5354" fill="url(#radialGradient7523)" fill-opacity="1" stroke="#000" stroke-dasharray="none" stroke-linecap="butt" stroke-linejoin="miter" stroke-miterlimit="4" stroke-opacity="1" stroke-width="2" d="m 221.5679,765.05791 c -3.03514,5.77857 -3.9083,21.33023 -4.63611,27.81669 -0.9659,8.6083 1.97417,17.66913 6.18148,25.24107 5.24884,9.44639 12.70476,18.989 22.66545,23.18057 11.23687,4.72859 25.19348,4.37211 36.57379,0 15.32137,-5.8862 27.0847,-19.57581 36.5738,-32.96792 8.49913,-11.99498 14.51622,-26.20512 16.99908,-40.69478 2.06227,-12.03519 2.58482,-25.28133 -2.0605,-36.5738 -2.26758,-5.51234 -6.44739,-10.87076 -11.84784,-13.39322 -11.36117,-5.3066 -26.69518,-7.12522 -39.14941,-5.66636 -10.59009,1.24049 -20.96424,6.30805 -29.36206,12.8781 -15.13214,11.83863 -23.00365,23.17031 -31.93768,40.17965 z"/><path id="path5356" fill="#000" fill-opacity="1" stroke="none" d="m 337.39095,648.28086 -9.09137,-25.25382 45.45686,-28.28426 -39.39595,29.29442 11.11168,21.2132 z"/><path id="path5358" fill="#000" fill-opacity="1" stroke="none" d="m 377.12025,674.13194 26.3491,-5.11211 -0.29378,-49.4825 -3.67561,44.79219 -23.91144,1.30868 z"/><path id="path5360" fill="#190a0a" fill-opacity="1" stroke="#000" stroke-dasharray="none" stroke-linecap="butt" stroke-linejoin="miter" stroke-miterlimit="4" stroke-opacity="1" stroke-width="2" d="m 366.68027,647.29611 c -27.16792,-17.37278 -71.80761,16.9758 -84.85281,46.46702 -4.06362,9.18662 11.59532,18.91941 17.1726,27.27411 8.56308,12.8274 8.93139,16.338 24.24365,18.18275 12.29207,1.48089 30.1403,7.01632 37.37565,-3.03045 17.35646,-24.10061 31.08246,-72.89316 6.06091,-88.89343 z"/><path id="path5362" fill="#501414" fill-opacity="1" stroke="#000" stroke-dasharray="none" stroke-miterlimit="4" stroke-opacity="1" stroke-width="1.286" d="m 137.38075,87.857765 c 0,5.021027 -3.61809,9.091373 -8.08122,9.091373 -4.46313,0 -8.08122,-4.070346 -8.08122,-9.091373 0,-5.021026 3.61809,-9.091372 8.08122,-9.091372 4.46313,0 8.08122,4.070346 8.08122,9.091372 z" transform="matrix(0.77752935,0,0,0.77752935,240.89229,587.85077)"/><path id="path5364" fill="#501414" fill-opacity="1" stroke="#000" stroke-dasharray="none" stroke-miterlimit="4" stroke-opacity="1" stroke-width="1.286" d="m 137.38075,87.857765 c 0,5.021027 -3.61809,9.091373 -8.08122,9.091373 -4.46313,0 -8.08122,-4.070346 -8.08122,-9.091373 0,-5.021026 3.61809,-9.091372 8.08122,-9.091372 4.46313,0 8.08122,4.070346 8.08122,9.091372 z" transform="matrix(0.77752935,0,0,0.77752935,266.1461,604.01321)"/></g><g id="g5626" transform="matrix(0.06374482,0.02784753,-0.02784753,0.06374482,773.17342,837.78839)"><path id="path5628" fill="url(#linearGradient7493)" fill-opacity="1" stroke="#000" stroke-linecap="butt" stroke-linejoin="miter" stroke-opacity="1" stroke-width=".819" d="m 217.88241,792.3617 c 0,0 -47.86319,-25.78961 -73.60427,-23.98341 -28.77874,2.01936 -77.739331,38.04265 -77.739331,38.04265 0,0 51.428771,-22.38352 78.566351,-21.50236 25.3559,0.8233 71.95024,24.81042 71.95024,24.81042 z"/><path id="path5630" fill="url(#linearGradient7495)" fill-opacity="1" stroke="#000" stroke-linecap="butt" stroke-linejoin="miter" stroke-opacity="1" stroke-width=".819" d="m 261.48816,836.61222 c 0,0 38.74024,38.14685 44.594,63.27849 6.54455,28.09739 -13.46431,85.4948 -13.46431,85.4948 0,0 6.24705,-55.73971 -2.58614,-81.41459 -8.25325,-23.98923 -44.89728,-61.45427 -44.89728,-61.45427 z"/><path id="path5632" fill="url(#radialGradient7497)" fill-opacity="1" stroke="#000" stroke-dasharray="none" stroke-linecap="butt" stroke-linejoin="miter" stroke-miterlimit="4" stroke-opacity="1" stroke-width="2" d="m 221.5679,802.14683 c 0,0 -31.49736,-1.31431 -45.84602,4.12099 -14.35585,5.43802 -28.18976,14.79285 -37.08891,27.30156 -7.39878,10.39976 -10.06136,23.87416 -11.33273,36.57379 -1.35814,13.56649 -4.14133,29.84913 4.12099,40.69483 8.92747,11.7187 26.52572,14.7841 41.20991,15.9688 14.87053,1.1997 30.53657,-2.4139 43.78552,-9.2722 13.91995,-7.2057 27.42451,-17.95787 34.5133,-31.93771 6.8005,-13.41131 5.15124,-44.81578 5.15124,-44.81578 z"/><path id="path5634" fill="url(#linearGradient7499)" fill-opacity="1" stroke="#000" stroke-linecap="butt" stroke-linejoin="miter" stroke-opacity="1" stroke-width="1" d="m 233.34523,774.57023 c -8.11272,-30.47687 -58.99338,-66.29974 -109.09647,-102.02541 0,0 56.92465,18.95185 79.80205,37.37565 16.83714,13.55941 39.39595,51.51778 39.39595,51.51778 z"/><path id="path5636" fill="url(#linearGradient7501)" fill-opacity="1" stroke="#000" stroke-linecap="butt" stroke-linejoin="miter" stroke-opacity="1" stroke-width=".819" d="m 313.63751,787.56524 c 0,0 47.86319,25.78961 73.60427,23.98341 28.77874,-2.01936 77.73933,-38.04265 77.73933,-38.04265 0,0 -51.42877,22.38352 -78.56635,21.50236 -25.3559,-0.8233 -71.95024,-24.81042 -71.95024,-24.81042 z"/><path id="path5638" fill="url(#linearGradient7503)" fill-opacity="1" stroke="#000" stroke-linecap="butt" stroke-linejoin="miter" stroke-opacity="1" stroke-width="1" d="m 298.35645,814.81164 c 31.27197,4.08894 73.395,49.89035 115.32074,94.93339 0,0 -26.17904,-53.98375 -47.41598,-74.27671 -15.62981,-14.93507 -56.19477,-32.37701 -56.19477,-32.37701 z"/><path id="path5640" fill="url(#linearGradient7505)" fill-opacity="1" stroke="#000" stroke-linecap="butt" stroke-linejoin="miter" stroke-opacity="1" stroke-width=".819" d="m 270.03177,743.31472 c 0,0 -38.74024,-38.14685 -44.594,-63.27849 -6.54455,-28.09739 13.46431,-85.4948 13.46431,-85.4948 0,0 -6.24705,55.73971 2.58614,81.41459 8.25325,23.98923 44.89728,61.45427 44.89728,61.45427 z"/><path id="path5642" fill="url(#radialGradient7507)" fill-opacity="1" stroke="#000" stroke-dasharray="none" stroke-linecap="butt" stroke-linejoin="miter" stroke-miterlimit="4" stroke-opacity="1" stroke-width="2" d="m 221.5679,765.05791 c -3.03514,5.77857 -3.9083,21.33023 -4.63611,27.81669 -0.9659,8.6083 1.97417,17.66913 6.18148,25.24107 5.24884,9.44639 12.70476,18.989 22.66545,23.18057 11.23687,4.72859 25.19348,4.37211 36.57379,0 15.32137,-5.8862 27.0847,-19.57581 36.5738,-32.96792 8.49913,-11.99498 14.51622,-26.20512 16.99908,-40.69478 2.06227,-12.03519 2.58482,-25.28133 -2.0605,-36.5738 -2.26758,-5.51234 -6.44739,-10.87076 -11.84784,-13.39322 -11.36117,-5.3066 -26.69518,-7.12522 -39.14941,-5.66636 -10.59009,1.24049 -20.96424,6.30805 -29.36206,12.8781 -15.13214,11.83863 -23.00365,23.17031 -31.93768,40.17965 z"/><path id="path5644" fill="#000" fill-opacity="1" stroke="none" d="m 337.39095,648.28086 -9.09137,-25.25382 45.45686,-28.28426 -39.39595,29.29442 11.11168,21.2132 z"/><path id="path5646" fill="#000" fill-opacity="1" stroke="none" d="m 377.12025,674.13194 26.3491,-5.11211 -0.29378,-49.4825 -3.67561,44.79219 -23.91144,1.30868 z"/><path id="path5648" fill="#190a0a" fill-opacity="1" stroke="#000" stroke-dasharray="none" stroke-linecap="butt" stroke-linejoin="miter" stroke-miterlimit="4" stroke-opacity="1" stroke-width="2" d="m 366.68027,647.29611 c -27.16792,-17.37278 -71.80761,16.9758 -84.85281,46.46702 -4.06362,9.18662 11.59532,18.91941 17.1726,27.27411 8.56308,12.8274 8.93139,16.338 24.24365,18.18275 12.29207,1.48089 30.1403,7.01632 37.37565,-3.03045 17.35646,-24.10061 31.08246,-72.89316 6.06091,-88.89343 z"/><path id="path5650" fill="#501414" fill-opacity="1" stroke="#000" stroke-dasharray="none" stroke-miterlimit="4" stroke-opacity="1" stroke-width="1.286" d="m 137.38075,87.857765 c 0,5.021027 -3.61809,9.091373 -8.08122,9.091373 -4.46313,0 -8.08122,-4.070346 -8.08122,-9.091373 0,-5.021026 3.61809,-9.091372 8.08122,-9.091372 4.46313,0 8.08122,4.070346 8.08122,9.091372 z" transform="matrix(0.77752935,0,0,0.77752935,240.89229,587.85077)"/><path id="path5652" fill="#501414" fill-opacity="1" stroke="#000" stroke-dasharray="none" stroke-miterlimit="4" stroke-opacity="1" stroke-width="1.286" d="m 137.38075,87.857765 c 0,5.021027 -3.61809,9.091373 -8.08122,9.091373 -4.46313,0 -8.08122,-4.070346 -8.08122,-9.091373 0,-5.021026 3.61809,-9.091372 8.08122,-9.091372 4.46313,0 8.08122,4.070346 8.08122,9.091372 z" transform="matrix(0.77752935,0,0,0.77752935,266.1461,604.01321)"/></g><g id="g5670" transform="matrix(0.04128087,0.05598908,-0.05598908,0.04128087,830.01744,843.01145)"><path id="path5672" fill="url(#linearGradient7477)" fill-opacity="1" stroke="#000" stroke-linecap="butt" stroke-linejoin="miter" stroke-opacity="1" stroke-width=".819" d="m 217.88241,792.3617 c 0,0 -47.86319,-25.78961 -73.60427,-23.98341 -28.77874,2.01936 -77.739331,38.04265 -77.739331,38.04265 0,0 51.428771,-22.38352 78.566351,-21.50236 25.3559,0.8233 71.95024,24.81042 71.95024,24.81042 z"/><path id="path5674" fill="url(#linearGradient7479)" fill-opacity="1" stroke="#000" stroke-linecap="butt" stroke-linejoin="miter" stroke-opacity="1" stroke-width=".819" d="m 261.48816,836.61222 c 0,0 38.74024,38.14685 44.594,63.27849 6.54455,28.09739 -13.46431,85.4948 -13.46431,85.4948 0,0 6.24705,-55.73971 -2.58614,-81.41459 -8.25325,-23.98923 -44.89728,-61.45427 -44.89728,-61.45427 z"/><path id="path5676" fill="url(#radialGradient7481)" fill-opacity="1" stroke="#000" stroke-dasharray="none" stroke-linecap="butt" stroke-linejoin="miter" stroke-miterlimit="4" stroke-opacity="1" stroke-width="2" d="m 221.5679,802.14683 c 0,0 -31.49736,-1.31431 -45.84602,4.12099 -14.35585,5.43802 -28.18976,14.79285 -37.08891,27.30156 -7.39878,10.39976 -10.06136,23.87416 -11.33273,36.57379 -1.35814,13.56649 -4.14133,29.84913 4.12099,40.69483 8.92747,11.7187 26.52572,14.7841 41.20991,15.9688 14.87053,1.1997 30.53657,-2.4139 43.78552,-9.2722 13.91995,-7.2057 27.42451,-17.95787 34.5133,-31.93771 6.8005,-13.41131 5.15124,-44.81578 5.15124,-44.81578 z"/><path id="path5678" fill="url(#linearGradient7483)" fill-opacity="1" stroke="#000" stroke-linecap="butt" stroke-linejoin="miter" stroke-opacity="1" stroke-width="1" d="m 233.34523,774.57023 c -8.11272,-30.47687 -58.99338,-66.29974 -109.09647,-102.02541 0,0 56.92465,18.95185 79.80205,37.37565 16.83714,13.55941 39.39595,51.51778 39.39595,51.51778 z"/><path id="path5680" fill="url(#linearGradient7485)" fill-opacity="1" stroke="#000" stroke-linecap="butt" stroke-linejoin="miter" stroke-opacity="1" stroke-width=".819" d="m 313.63751,787.56524 c 0,0 47.86319,25.78961 73.60427,23.98341 28.77874,-2.01936 77.73933,-38.04265 77.73933,-38.04265 0,0 -51.42877,22.38352 -78.56635,21.50236 -25.3559,-0.8233 -71.95024,-24.81042 -71.95024,-24.81042 z"/><path id="path5682" fill="url(#linearGradient7487)" fill-opacity="1" stroke="#000" stroke-linecap="butt" stroke-linejoin="miter" stroke-opacity="1" stroke-width="1" d="m 298.35645,814.81164 c 31.27197,4.08894 73.395,49.89035 115.32074,94.93339 0,0 -26.17904,-53.98375 -47.41598,-74.27671 -15.62981,-14.93507 -56.19477,-32.37701 -56.19477,-32.37701 z"/><path id="path5684" fill="url(#linearGradient7489)" fill-opacity="1" stroke="#000" stroke-linecap="butt" stroke-linejoin="miter" stroke-opacity="1" stroke-width=".819" d="m 270.03177,743.31472 c 0,0 -38.74024,-38.14685 -44.594,-63.27849 -6.54455,-28.09739 13.46431,-85.4948 13.46431,-85.4948 0,0 -6.24705,55.73971 2.58614,81.41459 8.25325,23.98923 44.89728,61.45427 44.89728,61.45427 z"/><path id="path5686" fill="url(#radialGradient7491)" fill-opacity="1" stroke="#000" stroke-dasharray="none" stroke-linecap="butt" stroke-linejoin="miter" stroke-miterlimit="4" stroke-opacity="1" stroke-width="2" d="m 221.5679,765.05791 c -3.03514,5.77857 -3.9083,21.33023 -4.63611,27.81669 -0.9659,8.6083 1.97417,17.66913 6.18148,25.24107 5.24884,9.44639 12.70476,18.989 22.66545,23.18057 11.23687,4.72859 25.19348,4.37211 36.57379,0 15.32137,-5.8862 27.0847,-19.57581 36.5738,-32.96792 8.49913,-11.99498 14.51622,-26.20512 16.99908,-40.69478 2.06227,-12.03519 2.58482,-25.28133 -2.0605,-36.5738 -2.26758,-5.51234 -6.44739,-10.87076 -11.84784,-13.39322 -11.36117,-5.3066 -26.69518,-7.12522 -39.14941,-5.66636 -10.59009,1.24049 -20.96424,6.30805 -29.36206,12.8781 -15.13214,11.83863 -23.00365,23.17031 -31.93768,40.17965 z"/><path id="path5688" fill="#000" fill-opacity="1" stroke="none" d="m 337.39095,648.28086 -9.09137,-25.25382 45.45686,-28.28426 -39.39595,29.29442 11.11168,21.2132 z"/><path id="path5690" fill="#000" fill-opacity="1" stroke="none" d="m 377.12025,674.13194 26.3491,-5.11211 -0.29378,-49.4825 -3.67561,44.79219 -23.91144,1.30868 z"/><path id="path5692" fill="#190a0a" fill-opacity="1" stroke="#000" stroke-dasharray="none" stroke-linecap="butt" stroke-linejoin="miter" stroke-miterlimit="4" stroke-opacity="1" stroke-width="2" d="m 366.68027,647.29611 c -27.16792,-17.37278 -71.80761,16.9758 -84.85281,46.46702 -4.06362,9.18662 11.59532,18.91941 17.1726,27.27411 8.56308,12.8274 8.93139,16.338 24.24365,18.18275 12.29207,1.48089 30.1403,7.01632 37.37565,-3.03045 17.35646,-24.10061 31.08246,-72.89316 6.06091,-88.89343 z"/><path id="path5694" fill="#501414" fill-opacity="1" stroke="#000" stroke-dasharray="none" stroke-miterlimit="4" stroke-opacity="1" stroke-width="1.286" d="m 137.38075,87.857765 c 0,5.021027 -3.61809,9.091373 -8.08122,9.091373 -4.46313,0 -8.08122,-4.070346 -8.08122,-9.091373 0,-5.021026 3.61809,-9.091372 8.08122,-9.091372 4.46313,0 8.08122,4.070346 8.08122,9.091372 z" transform="matrix(0.77752935,0,0,0.77752935,240.89229,587.85077)"/><path id="path5696" fill="#501414" fill-opacity="1" stroke="#000" stroke-dasharray="none" stroke-miterlimit="4" stroke-opacity="1" stroke-width="1.286" d="m 137.38075,87.857765 c 0,5.021027 -3.61809,9.091373 -8.08122,9.091373 -4.46313,0 -8.08122,-4.070346 -8.08122,-9.091373 0,-5.021026 3.61809,-9.091372 8.08122,-9.091372 4.46313,0 8.08122,4.070346 8.08122,9.091372 z" transform="matrix(0.77752935,0,0,0.77752935,266.1461,604.01321)"/></g><g id="g6022" transform="matrix(0.00108047,0.06955373,-0.06955373,0.00108047,881.22163,882.84751)"><path id="path6024" fill="url(#linearGradient7445)" fill-opacity="1" stroke="#000" stroke-linecap="butt" stroke-linejoin="miter" stroke-opacity="1" stroke-width=".819" d="m 217.88241,792.3617 c 0,0 -47.86319,-25.78961 -73.60427,-23.98341 -28.77874,2.01936 -77.739331,38.04265 -77.739331,38.04265 0,0 51.428771,-22.38352 78.566351,-21.50236 25.3559,0.8233 71.95024,24.81042 71.95024,24.81042 z"/><path id="path6026" fill="url(#linearGradient7447)" fill-opacity="1" stroke="#000" stroke-linecap="butt" stroke-linejoin="miter" stroke-opacity="1" stroke-width=".819" d="m 261.48816,836.61222 c 0,0 38.74024,38.14685 44.594,63.27849 6.54455,28.09739 -13.46431,85.4948 -13.46431,85.4948 0,0 6.24705,-55.73971 -2.58614,-81.41459 -8.25325,-23.98923 -44.89728,-61.45427 -44.89728,-61.45427 z"/><path id="path6028" fill="url(#radialGradient7449)" fill-opacity="1" stroke="#000" stroke-dasharray="none" stroke-linecap="butt" stroke-linejoin="miter" stroke-miterlimit="4" stroke-opacity="1" stroke-width="2" d="m 221.5679,802.14683 c 0,0 -31.49736,-1.31431 -45.84602,4.12099 -14.35585,5.43802 -28.18976,14.79285 -37.08891,27.30156 -7.39878,10.39976 -10.06136,23.87416 -11.33273,36.57379 -1.35814,13.56649 -4.14133,29.84913 4.12099,40.69483 8.92747,11.7187 26.52572,14.7841 41.20991,15.9688 14.87053,1.1997 30.53657,-2.4139 43.78552,-9.2722 13.91995,-7.2057 27.42451,-17.95787 34.5133,-31.93771 6.8005,-13.41131 5.15124,-44.81578 5.15124,-44.81578 z"/><path id="path6030" fill="url(#linearGradient7451)" fill-opacity="1" stroke="#000" stroke-linecap="butt" stroke-linejoin="miter" stroke-opacity="1" stroke-width="1" d="m 233.34523,774.57023 c -8.11272,-30.47687 -58.99338,-66.29974 -109.09647,-102.02541 0,0 56.92465,18.95185 79.80205,37.37565 16.83714,13.55941 39.39595,51.51778 39.39595,51.51778 z"/><path id="path6032" fill="url(#linearGradient7453)" fill-opacity="1" stroke="#000" stroke-linecap="butt" stroke-linejoin="miter" stroke-opacity="1" stroke-width=".819" d="m 313.63751,787.56524 c 0,0 47.86319,25.78961 73.60427,23.98341 28.77874,-2.01936 77.73933,-38.04265 77.73933,-38.04265 0,0 -51.42877,22.38352 -78.56635,21.50236 -25.3559,-0.8233 -71.95024,-24.81042 -71.95024,-24.81042 z"/><path id="path6034" fill="url(#linearGradient7455)" fill-opacity="1" stroke="#000" stroke-linecap="butt" stroke-linejoin="miter" stroke-opacity="1" stroke-width="1" d="m 298.35645,814.81164 c 31.27197,4.08894 73.395,49.89035 115.32074,94.93339 0,0 -26.17904,-53.98375 -47.41598,-74.27671 -15.62981,-14.93507 -56.19477,-32.37701 -56.19477,-32.37701 z"/><path id="path6036" fill="url(#linearGradient7457)" fill-opacity="1" stroke="#000" stroke-linecap="butt" stroke-linejoin="miter" stroke-opacity="1" stroke-width=".819" d="m 270.03177,743.31472 c 0,0 -38.74024,-38.14685 -44.594,-63.27849 -6.54455,-28.09739 13.46431,-85.4948 13.46431,-85.4948 0,0 -6.24705,55.73971 2.58614,81.41459 8.25325,23.98923 44.89728,61.45427 44.89728,61.45427 z"/><path id="path6038" fill="url(#radialGradient7459)" fill-opacity="1" stroke="#000" stroke-dasharray="none" stroke-linecap="butt" stroke-linejoin="miter" stroke-miterlimit="4" stroke-opacity="1" stroke-width="2" d="m 221.5679,765.05791 c -3.03514,5.77857 -3.9083,21.33023 -4.63611,27.81669 -0.9659,8.6083 1.97417,17.66913 6.18148,25.24107 5.24884,9.44639 12.70476,18.989 22.66545,23.18057 11.23687,4.72859 25.19348,4.37211 36.57379,0 15.32137,-5.8862 27.0847,-19.57581 36.5738,-32.96792 8.49913,-11.99498 14.51622,-26.20512 16.99908,-40.69478 2.06227,-12.03519 2.58482,-25.28133 -2.0605,-36.5738 -2.26758,-5.51234 -6.44739,-10.87076 -11.84784,-13.39322 -11.36117,-5.3066 -26.69518,-7.12522 -39.14941,-5.66636 -10.59009,1.24049 -20.96424,6.30805 -29.36206,12.8781 -15.13214,11.83863 -23.00365,23.17031 -31.93768,40.17965 z"/><path id="path6040" fill="#000" fill-opacity="1" stroke="none" d="m 337.39095,648.28086 -9.09137,-25.25382 45.45686,-28.28426 -39.39595,29.29442 11.11168,21.2132 z"/><path id="path6042" fill="#000" fill-opacity="1" stroke="none" d="m 377.12025,674.13194 26.3491,-5.11211 -0.29378,-49.4825 -3.67561,44.79219 -23.91144,1.30868 z"/><path id="path6044" fill="#190a0a" fill-opacity="1" stroke="#000" stroke-dasharray="none" stroke-linecap="butt" stroke-linejoin="miter" stroke-miterlimit="4" stroke-opacity="1" stroke-width="2" d="m 366.68027,647.29611 c -27.16792,-17.37278 -71.80761,16.9758 -84.85281,46.46702 -4.06362,9.18662 11.59532,18.91941 17.1726,27.27411 8.56308,12.8274 8.93139,16.338 24.24365,18.18275 12.29207,1.48089 30.1403,7.01632 37.37565,-3.03045 17.35646,-24.10061 31.08246,-72.89316 6.06091,-88.89343 z"/><path id="path6046" fill="#501414" fill-opacity="1" stroke="#000" stroke-dasharray="none" stroke-miterlimit="4" stroke-opacity="1" stroke-width="1.286" d="m 137.38075,87.857765 c 0,5.021027 -3.61809,9.091373 -8.08122,9.091373 -4.46313,0 -8.08122,-4.070346 -8.08122,-9.091373 0,-5.021026 3.61809,-9.091372 8.08122,-9.091372 4.46313,0 8.08122,4.070346 8.08122,9.091372 z" transform="matrix(0.77752935,0,0,0.77752935,240.89229,587.85077)"/><path id="path6048" fill="#501414" fill-opacity="1" stroke="#000" stroke-dasharray="none" stroke-miterlimit="4" stroke-opacity="1" stroke-width="1.286" d="m 137.38075,87.857765 c 0,5.021027 -3.61809,9.091373 -8.08122,9.091373 -4.46313,0 -8.08122,-4.070346 -8.08122,-9.091373 0,-5.021026 3.61809,-9.091372 8.08122,-9.091372 4.46313,0 8.08122,4.070346 8.08122,9.091372 z" transform="matrix(0.77752935,0,0,0.77752935,266.1461,604.01321)"/></g><text id="text5516" x="16.523" y="1036.008" fill="#fff" fill-opacity="1" stroke="none" font-family="Sans" font-size="14.16" font-style="normal" font-weight="normal" letter-spacing="0" word-spacing="0" xml:space="preserve" style="line-height:125%"><tspan id="tspan5518" x="16.523" y="1036.008" fill="#fff" fill-opacity="1" font-family="Ubuntu" font-size="14" font-stretch="normal" font-style="normal" font-variant="normal" font-weight="normal" style="-inkscape-font-specification:Ubuntu">Sign in</tspan></text><text id="text4821" x="76.523" y="1036.008" fill="#fff" fill-opacity="1" stroke="none" font-family="Sans" font-size="14.16" font-style="normal" font-weight="normal" letter-spacing="0" word-spacing="0" xml:space="preserve" style="line-height:125%"><tspan id="tspan4823" x="76.523" y="1036.008" fill="#fff" fill-opacity="1" font-family="Ubuntu" font-size="14" font-stretch="normal" font-style="normal" font-variant="normal" font-weight="normal" style="-inkscape-font-specification:Ubuntu">Register</tspan></text><path id="path4825" fill="none" stroke="#fff" stroke-dasharray="none" stroke-linecap="butt" stroke-linejoin="miter" stroke-miterlimit="4" stroke-opacity="1" stroke-width="1.481" d="m 67.577835,1024.9145 0,14.5147"/></g></svg>