<svg xmlns="http://www.w3.org/2000/svg" xmlns:svg="http://www.w3.org/2000/svg" xmlns:xlink="http://www.w3.org/1999/xlink" id="svg2" width="500" height="500" version="1.1"><defs id="defs4"><linearGradient id="linearGradient3839"><stop id="stop3841" offset="0" stop-color="#281414" stop-opacity="1"/><stop id="stop3843" offset="1" stop-color="#281414" stop-opacity="0"/></linearGradient><linearGradient id="linearGradient3831"><stop id="stop3833" offset="0" stop-color="#281414" stop-opacity="1"/><stop id="stop3835" offset="1" stop-color="#000" stop-opacity="1"/></linearGradient><linearGradient id="linearGradient3799"><stop id="stop3801" offset="0" stop-color="#000" stop-opacity="1"/><stop id="stop3803" offset="1" stop-color="#000" stop-opacity="0"/></linearGradient><linearGradient id="linearGradient3783"><stop id="stop3785" offset="0" stop-color="#000" stop-opacity="1"/><stop id="stop3787" offset="1" stop-color="#502828" stop-opacity="1"/></linearGradient><linearGradient id="linearGradient3789" x1="235.876" x2="132.83" y1="752.852" y2="675.07" gradientUnits="userSpaceOnUse" xlink:href="#linearGradient3783"/><linearGradient id="linearGradient3797" x1="262.099" x2="237.297" y1="725.497" y2="596.197" gradientUnits="userSpaceOnUse" xlink:href="#linearGradient3783"/><linearGradient id="linearGradient3805" x1="222.703" x2="72.83" y1="800.12" y2="801.13" gradientUnits="userSpaceOnUse" xlink:href="#linearGradient3783"/><linearGradient id="linearGradient3813" x1="313.228" x2="465.39" y1="790.919" y2="790.919" gradientUnits="userSpaceOnUse" xlink:href="#linearGradient3783"/><linearGradient id="linearGradient3821" x1="307.958" x2="408.116" y1="806.921" y2="909.956" gradientUnits="userSpaceOnUse" xlink:href="#linearGradient3783"/><linearGradient id="linearGradient3829" x1="268.969" x2="294.675" y1="845.339" y2="977.669" gradientUnits="userSpaceOnUse" xlink:href="#linearGradient3783"/><radialGradient id="radialGradient3837" cx="146.549" cy="903.513" r="66.261" fx="146.549" fy="903.513" gradientTransform="matrix(2.6788686,0.15158589,-0.13097137,2.3145631,-127.70278,-1211.5568)" gradientUnits="userSpaceOnUse" xlink:href="#linearGradient3831"/><radialGradient id="radialGradient3847" cx="277.096" cy="778.113" r="61.348" fx="277.096" fy="778.113" gradientTransform="matrix(-0.84486159,0.93523466,-1.1924279,-1.0772019,1439.0469,1357.148)" gradientUnits="userSpaceOnUse" spreadMethod="pad" xlink:href="#linearGradient3831"/><filter id="filter4175" width="3.503" height="10.142" x="-1.252" y="-4.571"><feGaussianBlur id="feGaussianBlur4177" stdDeviation="78.929"/></filter><filter id="filter4179" width="4.178" height="4.713" x="-1.589" y="-1.857"><feGaussianBlur id="feGaussianBlur4181" stdDeviation="78.929"/></filter><filter id="filter4183" width="7.085" height="3.547" x="-3.042" y="-1.273"><feGaussianBlur id="feGaussianBlur4185" stdDeviation="78.929"/></filter><filter id="filter4187" width="7.085" height="3.547" x="-3.042" y="-1.273"><feGaussianBlur id="feGaussianBlur4189" stdDeviation="78.929"/></filter><filter id="filter4191" width="4.285" height="4.552" x="-1.643" y="-1.776"><feGaussianBlur id="feGaussianBlur4193" stdDeviation="78.929"/></filter><filter id="filter4195" width="3.503" height="10.142" x="-1.252" y="-4.571"><feGaussianBlur id="feGaussianBlur4197" stdDeviation="78.929"/></filter></defs><metadata id="metadata7"/><g id="layer1" transform="translate(0,-552.36218)"><path id="path3769" fill="url(#linearGradient3805)" fill-opacity="1" stroke="#000" stroke-linecap="butt" stroke-linejoin="miter" stroke-opacity="1" stroke-width=".819" d="m 217.88241,792.3617 c 0,0 -47.86319,-25.78961 -73.60427,-23.98341 -28.77874,2.01936 -77.739331,38.04265 -77.739331,38.04265 0,0 51.428771,-22.38352 78.566351,-21.50236 25.3559,0.8233 71.95024,24.81042 71.95024,24.81042 z"/><path id="path3773" fill="url(#linearGradient3829)" fill-opacity="1" stroke="#000" stroke-linecap="butt" stroke-linejoin="miter" stroke-opacity="1" stroke-width=".819" d="m 261.48816,836.61222 c 0,0 38.74024,38.14685 44.594,63.27849 6.54455,28.09739 -13.46431,85.4948 -13.46431,85.4948 0,0 6.24705,-55.73971 -2.58614,-81.41459 -8.25325,-23.98923 -44.89728,-61.45427 -44.89728,-61.45427 z"/><path id="path2985" fill="url(#radialGradient3837)" fill-opacity="1" stroke="#000" stroke-dasharray="none" stroke-linecap="butt" stroke-linejoin="miter" stroke-miterlimit="4" stroke-opacity="1" stroke-width="2" d="m 221.5679,802.14683 c 0,0 -31.49736,-1.31431 -45.84602,4.12099 -14.35585,5.43802 -28.18976,14.79285 -37.08891,27.30156 -7.39878,10.39976 -10.06136,23.87416 -11.33273,36.57379 -1.35814,13.56649 -4.14133,29.84913 4.12099,40.69483 8.92747,11.7187 26.52572,14.7841 41.20991,15.9688 14.87053,1.1997 30.53657,-2.4139 43.78552,-9.2722 13.91995,-7.2057 27.42451,-17.95787 34.5133,-31.93771 6.8005,-13.41131 5.15124,-44.81578 5.15124,-44.81578 z"/><path id="path3775" fill="url(#linearGradient3789)" fill-opacity="1" stroke="#000" stroke-linecap="butt" stroke-linejoin="miter" stroke-opacity="1" stroke-width="1" d="m 233.34523,774.57023 c -8.11272,-30.47687 -58.99338,-66.29974 -109.09647,-102.02541 0,0 56.92465,18.95185 79.80205,37.37565 16.83714,13.55941 39.39595,51.51778 39.39595,51.51778 z"/><path id="path3779" fill="url(#linearGradient3813)" fill-opacity="1" stroke="#000" stroke-linecap="butt" stroke-linejoin="miter" stroke-opacity="1" stroke-width=".819" d="m 313.63751,787.56524 c 0,0 47.86319,25.78961 73.60427,23.98341 28.77874,-2.01936 77.73933,-38.04265 77.73933,-38.04265 0,0 -51.42877,22.38352 -78.56635,21.50236 -25.3559,-0.8233 -71.95024,-24.81042 -71.95024,-24.81042 z"/><path id="path3777" fill="url(#linearGradient3821)" fill-opacity="1" stroke="#000" stroke-linecap="butt" stroke-linejoin="miter" stroke-opacity="1" stroke-width="1" d="m 298.35645,814.81164 c 31.27197,4.08894 73.395,49.89035 115.32074,94.93339 0,0 -26.17904,-53.98375 -47.41598,-74.27671 -15.62981,-14.93507 -56.19477,-32.37701 -56.19477,-32.37701 z"/><path id="path3781" fill="url(#linearGradient3797)" fill-opacity="1" stroke="#000" stroke-linecap="butt" stroke-linejoin="miter" stroke-opacity="1" stroke-width=".819" d="m 270.03177,743.31472 c 0,0 -38.74024,-38.14685 -44.594,-63.27849 -6.54455,-28.09739 13.46431,-85.4948 13.46431,-85.4948 0,0 -6.24705,55.73971 2.58614,81.41459 8.25325,23.98923 44.89728,61.45427 44.89728,61.45427 z"/><path id="path2987" fill="url(#radialGradient3847)" fill-opacity="1" stroke="#000" stroke-dasharray="none" stroke-linecap="butt" stroke-linejoin="miter" stroke-miterlimit="4" stroke-opacity="1" stroke-width="2" d="m 221.5679,765.05791 c -3.03514,5.77857 -3.9083,21.33023 -4.63611,27.81669 -0.9659,8.6083 1.97417,17.66913 6.18148,25.24107 5.24884,9.44639 12.70476,18.989 22.66545,23.18057 11.23687,4.72859 25.19348,4.37211 36.57379,0 15.32137,-5.8862 27.0847,-19.57581 36.5738,-32.96792 8.49913,-11.99498 14.51622,-26.20512 16.99908,-40.69478 2.06227,-12.03519 2.58482,-25.28133 -2.0605,-36.5738 -2.26758,-5.51234 -6.44739,-10.87076 -11.84784,-13.39322 -11.36117,-5.3066 -26.69518,-7.12522 -39.14941,-5.66636 -10.59009,1.24049 -20.96424,6.30805 -29.36206,12.8781 -15.13214,11.83863 -23.00365,23.17031 -31.93768,40.17965 z"/><path id="path3765" fill="#000" fill-opacity="1" stroke="none" d="m 337.39095,648.28086 -9.09137,-25.25382 45.45686,-28.28426 -39.39595,29.29442 11.11168,21.2132 z"/><path id="path3767" fill="#000" fill-opacity="1" stroke="none" d="m 377.12025,674.13194 26.3491,-5.11211 -0.29378,-49.4825 -3.67561,44.79219 -23.91144,1.30868 z"/><path id="path3759" fill="#190a0a" fill-opacity="1" stroke="#000" stroke-dasharray="none" stroke-linecap="butt" stroke-linejoin="miter" stroke-miterlimit="4" stroke-opacity="1" stroke-width="2" d="m 366.68027,647.29611 c -27.16792,-17.37278 -71.80761,16.9758 -84.85281,46.46702 -4.06362,9.18662 11.59532,18.91941 17.1726,27.27411 8.56308,12.8274 8.93139,16.338 24.24365,18.18275 12.29207,1.48089 30.1403,7.01632 37.37565,-3.03045 17.35646,-24.10061 31.08246,-72.89316 6.06091,-88.89343 z"/><path id="path3761" fill="#501414" fill-opacity="1" stroke="#000" stroke-dasharray="none" stroke-miterlimit="4" stroke-opacity="1" stroke-width="1.286" d="m 137.38075,87.857765 a 8.0812206,9.0913725 0 1 1 -16.16244,0 8.0812206,9.0913725 0 1 1 16.16244,0 z" transform="matrix(0.77752935,0,0,0.77752935,240.89229,587.85077)"/><path id="path3763" fill="#501414" fill-opacity="1" stroke="#000" stroke-dasharray="none" stroke-miterlimit="4" stroke-opacity="1" stroke-width="1.286" d="m 137.38075,87.857765 a 8.0812206,9.0913725 0 1 1 -16.16244,0 8.0812206,9.0913725 0 1 1 16.16244,0 z" transform="matrix(0.77752935,0,0,0.77752935,266.1461,604.01321)"/></g></svg>